HIERARCHY
ROOT Hips
{
    OFFSET 0.000000 0.000000 0.000000
    CHANNELS 6 Xposition Yposition Zposition Zrotation Xrotation Yrotation
    JOINT Spine
    {
        OFFSET -0.000000 7.236184 0.000000
        CHANNELS 3 Zrotation Xrotation Yrotation
        JOINT Spine1
        {
            OFFSET -0.000000 20.420147 0.000000
            CHANNELS 3 Zrotation Xrotation Yrotation
            JOINT Neck
            {
                OFFSET -0.000000 20.336288 1.848754
                CHANNELS 3 Zrotation Xrotation Yrotation
                JOINT Head
                {
                    OFFSET -0.000000 12.354461 -1.764923
                    CHANNELS 3 Zrotation Xrotation Yrotation
                    End Site
                    {
                        OFFSET -0.000000 22.061537 0.000000
                    }
                }
            }
            JOINT LeftShoulder
            {
                OFFSET 3.573296 18.396038 -0.314103
                CHANNELS 3 Zrotation Xrotation Yrotation
                JOINT LeftArm
                {
                    OFFSET 10.880760 0.000000 0.000000
                    CHANNELS 3 Zrotation Xrotation Yrotation
                    JOINT LeftForeArm
                    {
                        OFFSET 27.185530 0.000000 0.000000
                        CHANNELS 3 Zrotation Xrotation Yrotation
                        JOINT LeftHand
                        {
                            OFFSET 27.825975 0.000000 0.000000
                            CHANNELS 3 Zrotation Xrotation Yrotation
                            End Site
                            {
                                OFFSET 13.236923 0.000000 0.000000
                            }
                        }
                    }
                }
            }
            JOINT RightShoulder
            {
                OFFSET -3.474926 18.396038 -0.314103
                CHANNELS 3 Zrotation Xrotation Yrotation
                JOINT RightArm
                {
                    OFFSET -10.880760 0.000000 0.000000
                    CHANNELS 3 Zrotation Xrotation Yrotation
                    JOINT RightForeArm
                    {
                        OFFSET -27.185530 0.000000 0.000000
                        CHANNELS 3 Zrotation Xrotation Yrotation
                        JOINT RightHand
                        {
                            OFFSET -27.825975 0.000000 0.000000
                            CHANNELS 3 Zrotation Xrotation Yrotation
                            End Site
                            {
                                OFFSET -13.236923 0.000000 0.000000
                            }
                        }
                    }
                }
            }
        }
    }
    JOINT LeftUpLeg
    {
        OFFSET 8.824615 0.000000 0.000000
        CHANNELS 3 Zrotation Xrotation Yrotation
        JOINT LeftLeg
        {
            OFFSET -0.000000 -35.111282 0.000000
            CHANNELS 3 Zrotation Xrotation Yrotation
            JOINT LeftFoot
            {
                OFFSET -0.000000 -42.324711 0.000000
                CHANNELS 3 Zrotation Xrotation Yrotation
                JOINT LeftToeBase
                {
                    OFFSET -0.000000 -5.735999 13.236923
                    CHANNELS 3 Zrotation Xrotation Yrotation
                    End Site
                    {
                        OFFSET -0.000000 0.000000 3.529846
                    }
                }
            }
        }
    }
    JOINT RightUpLeg
    {
        OFFSET -8.824615 0.000000 0.000000
        CHANNELS 3 Zrotation Xrotation Yrotation
        JOINT RightLeg
        {
            OFFSET -0.000000 -35.111282 0.000000
            CHANNELS 3 Zrotation Xrotation Yrotation
            JOINT RightFoot
            {
                OFFSET -0.000000 -42.324711 0.000000
                CHANNELS 3 Zrotation Xrotation Yrotation
                JOINT RightToeBase
                {
                    OFFSET -0.000000 -5.735999 13.236923
                    CHANNELS 3 Zrotation Xrotation Yrotation
                    End Site
                    {
                        OFFSET -0.000000 0.000000 3.529846
                    }
                }
            }
        }
    }
}
MOTION
Frames:    10
Frame Time:    0.008333
-4.842754    81.769379    98.630348    0.350524    -11.851923    -176.582840    -1.750692    -14.232940    0.540159    1.499181    9.104207    0.639435    2.946401    7.152088    -1.764745    3.516699    -28.476795    -0.736593    1.410280    15.164545    -3.518763    -32.717312    45.555275    -54.219048    1.141984    -2.139853    -15.463243    14.583062    -2.048002    -0.493363    4.087853    17.820108    -0.896000    33.298607    42.512344    46.409317    -4.877161    -9.640131    23.073885    -16.404013    -8.838779    1.278396    5.792692    -16.581953    -0.210501    0.588883    18.908052    -0.138810    -6.379185    -11.015456    -9.732845    -0.514403    -1.260549    0.571507    -5.487594    -10.760517    -1.301069    2.251302    9.903134    4.240134    0.907639    -7.424753    -12.115569    -2.315310    0.234983    2.503327    
-4.817666    81.773987    98.662689    0.351216    -11.820348    -176.566971    -1.754019    -14.200501    0.543078    1.506225    9.096421    0.641742    2.906529    7.196542    -1.809383    3.587539    -28.401777    -0.753578    1.556028    14.944771    -3.638456    -32.343700    45.146515    -54.882954    1.245045    -2.006482    -15.503181    14.631997    -1.910327    -0.570791    3.905492    17.598587    -0.760747    33.011978    42.025257    46.771931    -5.080576    -9.429381    23.552086    -16.532015    -8.560130    1.237558    5.808095    -16.603436    -0.185618    0.599746    18.946785    -0.149262    -6.409055    -10.987755    -9.762669    -0.516199    -1.261137    0.573502    -5.465210    -10.778335    -1.295788    2.246100    9.953488    4.222457    0.890020    -7.427487    -12.119834    -2.331538    0.251391    2.520816    
-4.792513    81.778549    98.695534    0.351735    -11.788578    -176.550995    -1.757276    -14.167782    0.546001    1.513318    9.088023    0.644206    2.865566    7.241826    -1.854693    3.659221    -28.324677    -0.771075    1.702992    14.721323    -3.761128    -31.979952    44.724983    -55.543907    1.351172    -1.874550    -15.531873    14.685840    -1.775715    -0.662587    3.720652    17.373936    -0.623227    32.733414    41.524754    47.132839    -5.293446    -9.225351    24.021645    -16.660402    -8.287317    1.215071    5.823307    -16.625195    -0.161608    0.610444    18.985573    -0.158701    -6.439008    -10.959625    -9.792725    -0.517923    -1.261288    0.575418    -5.443110    -10.796685    -1.290665    2.241173    10.004697    4.204775    0.871554    -7.430332    -12.124252    -2.347615    0.267972    2.538140    
-4.767945    81.782890    98.728439    0.351903    -11.757480    -176.535278    -1.760247    -14.135473    0.549012    1.520143    9.078569    0.646675    2.823857    7.286983    -1.900049    3.730304    -28.245033    -0.789004    1.849015    14.497588    -3.885815    -31.630636    44.299206    -56.192795    1.457680    -1.746314    -15.547404    14.747581    -1.646082    -0.762652    3.535361    17.150230    -0.485321    32.468243    41.019096    47.488697    -5.510057    -9.030891    24.469984    -16.786789    -8.024870    1.209740    5.837693    -16.647018    -0.139824    0.620603    19.023514    -0.165984    -6.468290    -10.931622    -9.822439    -0.519395    -1.261040    0.577053    -5.422263    -10.815652    -1.285609    2.237274    10.055924    4.187370    0.852002    -7.433212    -12.129036    -2.362915    0.283617    2.554627    
-4.743969    81.786980    98.761696    0.351647    -11.726991    -176.519730    -1.762991    -14.103343    0.552166    1.526978    9.067417    0.649170    2.781106    7.332746    -1.945800    3.800250    -28.161966    -0.807869    1.994659    14.271639    -4.014438    -31.291962    43.868279    -56.834450    1.564560    -1.621196    -15.549550    14.819648    -1.520415    -0.867233    3.347921    16.926014    -0.345958    32.215199    40.505314    47.843040    -5.729105    -8.843740    24.896441    -16.912031    -7.770684    1.219648    5.851110    -16.669102    -0.120390    0.630320    19.060619    -0.170984    -6.497015    -10.903535    -9.851942    -0.520583    -1.260249    0.578373    -5.402748    -10.835621    -1.281072    2.234164    10.107929    4.170462    0.830942    -7.436333    -12.134043    -2.377166    0.298292    2.569982    
-4.720654    81.790771    98.795410    0.350878    -11.697324    -176.504349    -1.765366    -14.071380    0.555288    1.533423    9.054020    0.651824    2.736870    7.378841    -1.992031    3.869688    -28.073915    -0.827600    2.140684    14.042684    -4.148242    -30.963291    43.432507    -57.470314    1.671328    -1.498962    -15.537725    14.903255    -1.398247    -0.972938    3.157675    16.701466    -0.204517    31.973549    39.982834    48.198605    -5.948830    -8.663037    25.298637    -17.036448    -7.524305    1.242798    5.863477    -16.691750    -0.103466    0.639381    19.096947    -0.173742    -6.525001    -10.875440    -9.881000    -0.521424    -1.258953    0.579305    -5.384748    -10.857030    -1.277098    2.232100    10.160814    4.153648    0.807871    -7.439475    -12.138954    -2.390231    0.311903    2.584057    
-4.697939    81.794250    98.829781    0.349517    -11.668540    -176.489075    -1.767775    -14.039554    0.558457    1.540277    9.038044    0.654422    2.690578    7.425645    -2.038879    3.938099    -27.980217    -0.848534    2.287250    13.809470    -4.288406    -30.642071    42.990849    -58.103680    1.778104    -1.379268    -15.512057    14.999128    -1.278931    -1.077079    2.962889    16.475729    -0.060129    31.742367    39.449890    48.558292    -6.168480    -8.487224    25.675814    -17.160761    -7.284353    1.277672    5.874767    -16.715271    -0.088571    0.647931    19.132694    -0.174767    -6.552277    -10.847290    -9.909670    -0.521905    -1.256718    0.579838    -5.368586    -10.880087    -1.273297    2.231563    10.215018    4.138230    0.782240    -7.442832    -12.145597    -2.401845    0.323988    2.596570    
-4.675741    81.797440    98.864922    0.347677    -11.640678    -176.473709    -1.770075    -14.007737    0.561504    1.547257    9.019122    0.657012    2.642210    7.472648    -2.086371    4.005535    -27.879498    -0.870697    2.435161    13.570996    -4.436054    -30.327991    42.542782    -58.735653    1.884855    -1.261868    -15.472760    15.107304    -1.161924    -1.177143    2.763157    16.248217    0.087873    31.520660    38.906261    48.923977    -6.387149    -8.315587    26.027098    -17.285213    -7.050343    1.322617    5.885119    -16.740015    -0.075105    0.656176    19.168127    -0.174805    -6.578876    -10.819098    -9.938013    -0.521950    -1.254058    0.579884    -5.353925    -10.905169    -1.269875    2.232267    10.270967    4.123897    0.753730    -7.446318    -12.153552    -2.412004    0.334674    2.607514    
-4.653992    81.800354    98.900818    0.345416    -11.613856    -176.458069    -1.772451    -13.976045    0.564342    1.554551    8.997231    0.659359    2.591947    7.520079    -2.134269    4.071301    -27.772091    -0.894150    2.584874    13.326939    -4.591605    -30.021900    42.088890    -59.365513    1.991868    -1.146657    -15.420486    15.227351    -1.046971    -1.271203    2.558169    16.019135    0.239695    31.307505    38.353584    49.296925    -6.604221    -8.148385    26.351109    -17.409458    -6.822701    1.376078    5.894710    -16.766195    -0.062612    0.664094    19.203415    -0.174670    -6.604814    -10.790956    -9.965826    -0.521584    -1.251072    0.579475    -5.340648    -10.932342    -1.266869    2.234117    10.328742    4.111347    0.722924    -7.450031    -12.163479    -2.420642    0.343846    2.616818    
-4.632436    81.803070    98.937668    0.342850    -11.587744    -176.441910    -1.774924    -13.944142    0.566852    1.562141    8.972191    0.661373    2.539450    7.567996    -2.182703    4.135940    -27.656912    -0.918821    2.737665    13.075238    -4.756624    -29.722778    41.626320    -59.996414    2.100021    -1.032822    -15.355547    15.360010    -0.932964    -1.358498    2.346761    15.786704    0.396905    31.100315    37.790173    49.680134    -6.820837    -7.985125    26.649168    -17.533587    -6.600616    1.437025    5.903835    -16.793879    -0.050500    0.671825    19.238775    -0.175154    -6.630150    -10.762707    -9.993119    -0.520802    -1.247553    0.578602    -5.328449    -10.961648    -1.263912    2.237199    10.388857    4.101418    0.689879    -7.454116    -12.176708    -2.427941    0.351529    2.624683    
